<mxfile host="app.diagrams.net" agent="Mozilla/5.0 (Macintosh; Intel Mac OS X 10_15_7) AppleWebKit/537.36 (KHTML, like Gecko) Chrome/137.0.0.0 Safari/537.36" version="28.0.4">
  <diagram name="第 1 页" id="S3zjoMRcs28L6ZDRgXiE">
    <mxGraphModel dx="1179" dy="790" grid="1" gridSize="10" guides="1" tooltips="1" connect="1" arrows="1" fold="1" page="1" pageScale="1" pageWidth="827" pageHeight="1169" math="0" shadow="0">
      <root>
        <mxCell id="0" />
        <mxCell id="1" parent="0" />
        <mxCell id="q0mQEg1J84I6uzL_18lQ-1" value="IUserInfo" style="swimlane;fontStyle=1;align=center;verticalAlign=top;childLayout=stackLayout;horizontal=1;startSize=26;horizontalStack=0;resizeParent=1;resizeParentMax=0;resizeLast=0;collapsible=1;marginBottom=0;whiteSpace=wrap;html=1;" vertex="1" parent="1">
          <mxGeometry x="120" y="310" width="220" height="200" as="geometry" />
        </mxCell>
        <mxCell id="q0mQEg1J84I6uzL_18lQ-2" value="" style="line;strokeWidth=1;fillColor=none;align=left;verticalAlign=middle;spacingTop=-1;spacingLeft=3;spacingRight=3;rotatable=0;labelPosition=right;points=[];portConstraint=eastwest;strokeColor=inherit;" vertex="1" parent="q0mQEg1J84I6uzL_18lQ-1">
          <mxGeometry y="26" width="220" height="8" as="geometry" />
        </mxCell>
        <mxCell id="q0mQEg1J84I6uzL_18lQ-3" value="+ getUserName(): String" style="text;strokeColor=none;fillColor=none;align=left;verticalAlign=top;spacingLeft=4;spacingRight=4;overflow=hidden;rotatable=0;points=[[0,0.5],[1,0.5]];portConstraint=eastwest;whiteSpace=wrap;html=1;" vertex="1" parent="q0mQEg1J84I6uzL_18lQ-1">
          <mxGeometry y="34" width="220" height="26" as="geometry" />
        </mxCell>
        <mxCell id="q0mQEg1J84I6uzL_18lQ-4" value="+ getHomeAddress(): String" style="text;strokeColor=none;fillColor=none;align=left;verticalAlign=top;spacingLeft=4;spacingRight=4;overflow=hidden;rotatable=0;points=[[0,0.5],[1,0.5]];portConstraint=eastwest;whiteSpace=wrap;html=1;" vertex="1" parent="q0mQEg1J84I6uzL_18lQ-1">
          <mxGeometry y="60" width="220" height="26" as="geometry" />
        </mxCell>
        <mxCell id="q0mQEg1J84I6uzL_18lQ-5" value="+ getMobileNumber(): String" style="text;strokeColor=none;fillColor=none;align=left;verticalAlign=top;spacingLeft=4;spacingRight=4;overflow=hidden;rotatable=0;points=[[0,0.5],[1,0.5]];portConstraint=eastwest;whiteSpace=wrap;html=1;" vertex="1" parent="q0mQEg1J84I6uzL_18lQ-1">
          <mxGeometry y="86" width="220" height="26" as="geometry" />
        </mxCell>
        <mxCell id="q0mQEg1J84I6uzL_18lQ-6" value="+ getOfficeTelNumber(): String" style="text;strokeColor=none;fillColor=none;align=left;verticalAlign=top;spacingLeft=4;spacingRight=4;overflow=hidden;rotatable=0;points=[[0,0.5],[1,0.5]];portConstraint=eastwest;whiteSpace=wrap;html=1;" vertex="1" parent="q0mQEg1J84I6uzL_18lQ-1">
          <mxGeometry y="112" width="220" height="26" as="geometry" />
        </mxCell>
        <mxCell id="q0mQEg1J84I6uzL_18lQ-7" value="+ getJobPosition(): String" style="text;strokeColor=none;fillColor=none;align=left;verticalAlign=top;spacingLeft=4;spacingRight=4;overflow=hidden;rotatable=0;points=[[0,0.5],[1,0.5]];portConstraint=eastwest;whiteSpace=wrap;html=1;" vertex="1" parent="q0mQEg1J84I6uzL_18lQ-1">
          <mxGeometry y="138" width="220" height="26" as="geometry" />
        </mxCell>
        <mxCell id="q0mQEg1J84I6uzL_18lQ-8" value="+ getHomeTelNumber(): String" style="text;strokeColor=none;fillColor=none;align=left;verticalAlign=top;spacingLeft=4;spacingRight=4;overflow=hidden;rotatable=0;points=[[0,0.5],[1,0.5]];portConstraint=eastwest;whiteSpace=wrap;html=1;" vertex="1" parent="q0mQEg1J84I6uzL_18lQ-1">
          <mxGeometry y="164" width="220" height="36" as="geometry" />
        </mxCell>
        <mxCell id="q0mQEg1J84I6uzL_18lQ-9" value="UserInfo" style="swimlane;fontStyle=1;align=center;verticalAlign=top;childLayout=stackLayout;horizontal=1;startSize=26;horizontalStack=0;resizeParent=1;resizeParentMax=0;resizeLast=0;collapsible=1;marginBottom=0;whiteSpace=wrap;html=1;" vertex="1" parent="1">
          <mxGeometry x="80" y="580" width="160" height="34" as="geometry" />
        </mxCell>
        <mxCell id="q0mQEg1J84I6uzL_18lQ-10" value="" style="line;strokeWidth=1;fillColor=none;align=left;verticalAlign=middle;spacingTop=-1;spacingLeft=3;spacingRight=3;rotatable=0;labelPosition=right;points=[];portConstraint=eastwest;strokeColor=inherit;" vertex="1" parent="q0mQEg1J84I6uzL_18lQ-9">
          <mxGeometry y="26" width="160" height="8" as="geometry" />
        </mxCell>
        <mxCell id="q0mQEg1J84I6uzL_18lQ-11" value="" style="endArrow=block;dashed=1;endFill=0;endSize=12;html=1;rounded=0;exitX=0.5;exitY=0;exitDx=0;exitDy=0;entryX=0.495;entryY=1;entryDx=0;entryDy=0;entryPerimeter=0;" edge="1" parent="1" source="q0mQEg1J84I6uzL_18lQ-9">
          <mxGeometry width="160" relative="1" as="geometry">
            <mxPoint x="170" y="510" as="sourcePoint" />
            <mxPoint x="158.9000000000001" y="510" as="targetPoint" />
          </mxGeometry>
        </mxCell>
        <mxCell id="q0mQEg1J84I6uzL_18lQ-12" value="OuterUserInfo" style="swimlane;fontStyle=1;align=center;verticalAlign=top;childLayout=stackLayout;horizontal=1;startSize=26;horizontalStack=0;resizeParent=1;resizeParentMax=0;resizeLast=0;collapsible=1;marginBottom=0;whiteSpace=wrap;html=1;" vertex="1" parent="1">
          <mxGeometry x="260" y="580" width="160" height="60" as="geometry" />
        </mxCell>
        <mxCell id="q0mQEg1J84I6uzL_18lQ-14" value="" style="line;strokeWidth=1;fillColor=none;align=left;verticalAlign=middle;spacingTop=-1;spacingLeft=3;spacingRight=3;rotatable=0;labelPosition=right;points=[];portConstraint=eastwest;strokeColor=inherit;" vertex="1" parent="q0mQEg1J84I6uzL_18lQ-12">
          <mxGeometry y="26" width="160" height="8" as="geometry" />
        </mxCell>
        <mxCell id="q0mQEg1J84I6uzL_18lQ-15" value="+ method(type): type" style="text;strokeColor=none;fillColor=none;align=left;verticalAlign=top;spacingLeft=4;spacingRight=4;overflow=hidden;rotatable=0;points=[[0,0.5],[1,0.5]];portConstraint=eastwest;whiteSpace=wrap;html=1;" vertex="1" parent="q0mQEg1J84I6uzL_18lQ-12">
          <mxGeometry y="34" width="160" height="26" as="geometry" />
        </mxCell>
        <mxCell id="q0mQEg1J84I6uzL_18lQ-16" value="" style="endArrow=block;dashed=1;endFill=0;endSize=12;html=1;rounded=0;exitX=0.25;exitY=0;exitDx=0;exitDy=0;entryX=0.8;entryY=1;entryDx=0;entryDy=0;entryPerimeter=0;" edge="1" parent="1" source="q0mQEg1J84I6uzL_18lQ-12" target="q0mQEg1J84I6uzL_18lQ-8">
          <mxGeometry width="160" relative="1" as="geometry">
            <mxPoint x="270" y="490" as="sourcePoint" />
            <mxPoint x="302" y="500" as="targetPoint" />
          </mxGeometry>
        </mxCell>
        <mxCell id="q0mQEg1J84I6uzL_18lQ-17" value="IOuterUserBaseInfo" style="swimlane;fontStyle=1;align=center;verticalAlign=top;childLayout=stackLayout;horizontal=1;startSize=26;horizontalStack=0;resizeParent=1;resizeParentMax=0;resizeLast=0;collapsible=1;marginBottom=0;whiteSpace=wrap;html=1;" vertex="1" parent="1">
          <mxGeometry x="540" y="358" width="160" height="60" as="geometry">
            <mxRectangle x="490" y="290" width="150" height="30" as="alternateBounds" />
          </mxGeometry>
        </mxCell>
        <mxCell id="q0mQEg1J84I6uzL_18lQ-19" value="" style="line;strokeWidth=1;fillColor=none;align=left;verticalAlign=middle;spacingTop=-1;spacingLeft=3;spacingRight=3;rotatable=0;labelPosition=right;points=[];portConstraint=eastwest;strokeColor=inherit;" vertex="1" parent="q0mQEg1J84I6uzL_18lQ-17">
          <mxGeometry y="26" width="160" height="8" as="geometry" />
        </mxCell>
        <mxCell id="q0mQEg1J84I6uzL_18lQ-20" value="+ getBaseInfo(): map" style="text;strokeColor=none;fillColor=none;align=left;verticalAlign=top;spacingLeft=4;spacingRight=4;overflow=hidden;rotatable=0;points=[[0,0.5],[1,0.5]];portConstraint=eastwest;whiteSpace=wrap;html=1;" vertex="1" parent="q0mQEg1J84I6uzL_18lQ-17">
          <mxGeometry y="34" width="160" height="26" as="geometry" />
        </mxCell>
        <mxCell id="q0mQEg1J84I6uzL_18lQ-21" value="" style="endArrow=block;dashed=1;endFill=0;endSize=12;html=1;rounded=0;exitX=0.538;exitY=1;exitDx=0;exitDy=0;exitPerimeter=0;" edge="1" parent="1" source="q0mQEg1J84I6uzL_18lQ-20">
          <mxGeometry width="160" relative="1" as="geometry">
            <mxPoint x="380" y="598" as="sourcePoint" />
            <mxPoint x="626" y="458" as="targetPoint" />
          </mxGeometry>
        </mxCell>
        <mxCell id="q0mQEg1J84I6uzL_18lQ-22" value="OuterUserBaseInfo" style="swimlane;fontStyle=1;align=center;verticalAlign=top;childLayout=stackLayout;horizontal=1;startSize=26;horizontalStack=0;resizeParent=1;resizeParentMax=0;resizeLast=0;collapsible=1;marginBottom=0;whiteSpace=wrap;html=1;" vertex="1" parent="1">
          <mxGeometry x="540" y="458" width="160" height="34" as="geometry" />
        </mxCell>
        <mxCell id="q0mQEg1J84I6uzL_18lQ-24" value="" style="line;strokeWidth=1;fillColor=none;align=left;verticalAlign=middle;spacingTop=-1;spacingLeft=3;spacingRight=3;rotatable=0;labelPosition=right;points=[];portConstraint=eastwest;strokeColor=inherit;" vertex="1" parent="q0mQEg1J84I6uzL_18lQ-22">
          <mxGeometry y="26" width="160" height="8" as="geometry" />
        </mxCell>
        <mxCell id="q0mQEg1J84I6uzL_18lQ-28" value="IOuterUserOfficeInfo" style="swimlane;fontStyle=1;align=center;verticalAlign=top;childLayout=stackLayout;horizontal=1;startSize=26;horizontalStack=0;resizeParent=1;resizeParentMax=0;resizeLast=0;collapsible=1;marginBottom=0;whiteSpace=wrap;html=1;" vertex="1" parent="1">
          <mxGeometry x="540" y="538" width="160" height="60" as="geometry">
            <mxRectangle x="490" y="290" width="150" height="30" as="alternateBounds" />
          </mxGeometry>
        </mxCell>
        <mxCell id="q0mQEg1J84I6uzL_18lQ-29" value="" style="line;strokeWidth=1;fillColor=none;align=left;verticalAlign=middle;spacingTop=-1;spacingLeft=3;spacingRight=3;rotatable=0;labelPosition=right;points=[];portConstraint=eastwest;strokeColor=inherit;" vertex="1" parent="q0mQEg1J84I6uzL_18lQ-28">
          <mxGeometry y="26" width="160" height="8" as="geometry" />
        </mxCell>
        <mxCell id="q0mQEg1J84I6uzL_18lQ-30" value="+ getOfficeInfo(): map" style="text;strokeColor=none;fillColor=none;align=left;verticalAlign=top;spacingLeft=4;spacingRight=4;overflow=hidden;rotatable=0;points=[[0,0.5],[1,0.5]];portConstraint=eastwest;whiteSpace=wrap;html=1;" vertex="1" parent="q0mQEg1J84I6uzL_18lQ-28">
          <mxGeometry y="34" width="160" height="26" as="geometry" />
        </mxCell>
        <mxCell id="q0mQEg1J84I6uzL_18lQ-31" value="" style="endArrow=block;dashed=1;endFill=0;endSize=12;html=1;rounded=0;exitX=0.538;exitY=1;exitDx=0;exitDy=0;exitPerimeter=0;" edge="1" parent="1" source="q0mQEg1J84I6uzL_18lQ-30">
          <mxGeometry width="160" relative="1" as="geometry">
            <mxPoint x="380" y="778" as="sourcePoint" />
            <mxPoint x="626" y="638" as="targetPoint" />
          </mxGeometry>
        </mxCell>
        <mxCell id="q0mQEg1J84I6uzL_18lQ-32" value="OuterUserOfficeInfo" style="swimlane;fontStyle=1;align=center;verticalAlign=top;childLayout=stackLayout;horizontal=1;startSize=26;horizontalStack=0;resizeParent=1;resizeParentMax=0;resizeLast=0;collapsible=1;marginBottom=0;whiteSpace=wrap;html=1;" vertex="1" parent="1">
          <mxGeometry x="540" y="638" width="160" height="34" as="geometry" />
        </mxCell>
        <mxCell id="q0mQEg1J84I6uzL_18lQ-33" value="" style="line;strokeWidth=1;fillColor=none;align=left;verticalAlign=middle;spacingTop=-1;spacingLeft=3;spacingRight=3;rotatable=0;labelPosition=right;points=[];portConstraint=eastwest;strokeColor=inherit;" vertex="1" parent="q0mQEg1J84I6uzL_18lQ-32">
          <mxGeometry y="26" width="160" height="8" as="geometry" />
        </mxCell>
        <mxCell id="q0mQEg1J84I6uzL_18lQ-34" value="IOuterUserHomeInfo" style="swimlane;fontStyle=1;align=center;verticalAlign=top;childLayout=stackLayout;horizontal=1;startSize=26;horizontalStack=0;resizeParent=1;resizeParentMax=0;resizeLast=0;collapsible=1;marginBottom=0;whiteSpace=wrap;html=1;" vertex="1" parent="1">
          <mxGeometry x="540" y="728" width="160" height="60" as="geometry">
            <mxRectangle x="490" y="290" width="150" height="30" as="alternateBounds" />
          </mxGeometry>
        </mxCell>
        <mxCell id="q0mQEg1J84I6uzL_18lQ-35" value="" style="line;strokeWidth=1;fillColor=none;align=left;verticalAlign=middle;spacingTop=-1;spacingLeft=3;spacingRight=3;rotatable=0;labelPosition=right;points=[];portConstraint=eastwest;strokeColor=inherit;" vertex="1" parent="q0mQEg1J84I6uzL_18lQ-34">
          <mxGeometry y="26" width="160" height="8" as="geometry" />
        </mxCell>
        <mxCell id="q0mQEg1J84I6uzL_18lQ-36" value="+ getHomeInfo(): map" style="text;strokeColor=none;fillColor=none;align=left;verticalAlign=top;spacingLeft=4;spacingRight=4;overflow=hidden;rotatable=0;points=[[0,0.5],[1,0.5]];portConstraint=eastwest;whiteSpace=wrap;html=1;" vertex="1" parent="q0mQEg1J84I6uzL_18lQ-34">
          <mxGeometry y="34" width="160" height="26" as="geometry" />
        </mxCell>
        <mxCell id="q0mQEg1J84I6uzL_18lQ-37" value="" style="endArrow=block;dashed=1;endFill=0;endSize=12;html=1;rounded=0;exitX=0.538;exitY=1;exitDx=0;exitDy=0;exitPerimeter=0;" edge="1" parent="1" source="q0mQEg1J84I6uzL_18lQ-36">
          <mxGeometry width="160" relative="1" as="geometry">
            <mxPoint x="380" y="968" as="sourcePoint" />
            <mxPoint x="626" y="828" as="targetPoint" />
          </mxGeometry>
        </mxCell>
        <mxCell id="q0mQEg1J84I6uzL_18lQ-38" value="OuterUserHomeInfo" style="swimlane;fontStyle=1;align=center;verticalAlign=top;childLayout=stackLayout;horizontal=1;startSize=26;horizontalStack=0;resizeParent=1;resizeParentMax=0;resizeLast=0;collapsible=1;marginBottom=0;whiteSpace=wrap;html=1;" vertex="1" parent="1">
          <mxGeometry x="540" y="828" width="160" height="34" as="geometry" />
        </mxCell>
        <mxCell id="q0mQEg1J84I6uzL_18lQ-39" value="" style="line;strokeWidth=1;fillColor=none;align=left;verticalAlign=middle;spacingTop=-1;spacingLeft=3;spacingRight=3;rotatable=0;labelPosition=right;points=[];portConstraint=eastwest;strokeColor=inherit;" vertex="1" parent="q0mQEg1J84I6uzL_18lQ-38">
          <mxGeometry y="26" width="160" height="8" as="geometry" />
        </mxCell>
        <mxCell id="q0mQEg1J84I6uzL_18lQ-40" value="" style="endArrow=diamondThin;endFill=0;endSize=24;html=1;rounded=0;startArrow=open;startFill=0;entryX=0.75;entryY=0;entryDx=0;entryDy=0;exitX=0;exitY=0.5;exitDx=0;exitDy=0;" edge="1" parent="1" source="q0mQEg1J84I6uzL_18lQ-20" target="q0mQEg1J84I6uzL_18lQ-12">
          <mxGeometry width="160" relative="1" as="geometry">
            <mxPoint x="330" y="560" as="sourcePoint" />
            <mxPoint x="490" y="560" as="targetPoint" />
            <Array as="points">
              <mxPoint x="380" y="405" />
            </Array>
          </mxGeometry>
        </mxCell>
        <mxCell id="q0mQEg1J84I6uzL_18lQ-41" value="" style="endArrow=diamondThin;endFill=0;endSize=24;html=1;rounded=0;startArrow=open;startFill=0;entryX=1;entryY=0.5;entryDx=0;entryDy=0;exitX=0;exitY=0.5;exitDx=0;exitDy=0;" edge="1" parent="1" source="q0mQEg1J84I6uzL_18lQ-30" target="q0mQEg1J84I6uzL_18lQ-12">
          <mxGeometry width="160" relative="1" as="geometry">
            <mxPoint x="330" y="560" as="sourcePoint" />
            <mxPoint x="490" y="560" as="targetPoint" />
          </mxGeometry>
        </mxCell>
        <mxCell id="q0mQEg1J84I6uzL_18lQ-42" value="" style="endArrow=diamondThin;endFill=0;endSize=24;html=1;rounded=0;startArrow=open;startFill=0;entryX=0.631;entryY=1;entryDx=0;entryDy=0;entryPerimeter=0;exitX=0;exitY=0.5;exitDx=0;exitDy=0;" edge="1" parent="1" source="q0mQEg1J84I6uzL_18lQ-34" target="q0mQEg1J84I6uzL_18lQ-15">
          <mxGeometry width="160" relative="1" as="geometry">
            <mxPoint x="330" y="560" as="sourcePoint" />
            <mxPoint x="490" y="560" as="targetPoint" />
          </mxGeometry>
        </mxCell>
      </root>
    </mxGraphModel>
  </diagram>
</mxfile>
